<svg xmlns="http://www.w3.org/2000/svg" xmlns:xlink="http://www.w3.org/1999/xlink" width="500" zoomAndPan="magnify" viewBox="0 0 375 149.999998" height="200" preserveAspectRatio="xMidYMid meet" version="1.2"><defs><clipPath id="5918c15a1b"><path d="M 29 77 L 79 77 L 79 112.714844 L 29 112.714844 Z M 29 77 "/></clipPath><clipPath id="2edc836fb6"><path d="M 23.65625 51 L 83 51 L 83 85 L 23.65625 85 Z M 23.65625 51 "/></clipPath><clipPath id="231bffa57f"><path d="M 41 36.964844 L 68 36.964844 L 68 59 L 41 59 Z M 41 36.964844 "/></clipPath><clipPath id="6daf1beb6a"><path d="M 319.554688 71 L 342.804688 71 L 342.804688 90 L 319.554688 90 Z M 319.554688 71 "/></clipPath></defs><g id="0566991c17"><g style="fill:#54436b;fill-opacity:1;"><g transform="translate(98.277691, 86.616922)"><path style="stroke:none" d="M 31.875 -33.40625 L 31.875 0 L 28.6875 0 C 28.195312 0 27.785156 -0.078125 27.453125 -0.234375 C 27.117188 -0.398438 26.800781 -0.675781 26.5 -1.0625 L 9.0625 -23.328125 C 9.144531 -22.316406 9.1875 -21.378906 9.1875 -20.515625 L 9.1875 0 L 3.71875 0 L 3.71875 -33.40625 L 6.984375 -33.40625 C 7.242188 -33.40625 7.46875 -33.390625 7.65625 -33.359375 C 7.851562 -33.335938 8.023438 -33.289062 8.171875 -33.21875 C 8.316406 -33.15625 8.457031 -33.054688 8.59375 -32.921875 C 8.726562 -32.796875 8.882812 -32.625 9.0625 -32.40625 L 26.5625 -10.046875 C 26.519531 -10.585938 26.484375 -11.117188 26.453125 -11.640625 C 26.421875 -12.160156 26.40625 -12.644531 26.40625 -13.09375 L 26.40625 -33.40625 Z M 31.875 -33.40625 "/></g></g><g style="fill:#54436b;fill-opacity:1;"><g transform="translate(133.875335, 86.616922)"><path style="stroke:none" d="M 18.09375 -14.578125 C 18.09375 -15.316406 17.988281 -16.015625 17.78125 -16.671875 C 17.570312 -17.328125 17.257812 -17.898438 16.84375 -18.390625 C 16.425781 -18.878906 15.894531 -19.265625 15.25 -19.546875 C 14.613281 -19.835938 13.875 -19.984375 13.03125 -19.984375 C 11.382812 -19.984375 10.085938 -19.515625 9.140625 -18.578125 C 8.191406 -17.640625 7.585938 -16.304688 7.328125 -14.578125 Z M 7.203125 -11.140625 C 7.296875 -9.921875 7.507812 -8.867188 7.84375 -7.984375 C 8.1875 -7.097656 8.632812 -6.363281 9.1875 -5.78125 C 9.75 -5.207031 10.410156 -4.773438 11.171875 -4.484375 C 11.929688 -4.203125 12.773438 -4.0625 13.703125 -4.0625 C 14.617188 -4.0625 15.410156 -4.171875 16.078125 -4.390625 C 16.753906 -4.609375 17.34375 -4.847656 17.84375 -5.109375 C 18.34375 -5.367188 18.78125 -5.601562 19.15625 -5.8125 C 19.539062 -6.03125 19.910156 -6.140625 20.265625 -6.140625 C 20.734375 -6.140625 21.085938 -5.960938 21.328125 -5.609375 L 22.96875 -3.53125 C 22.332031 -2.789062 21.617188 -2.171875 20.828125 -1.671875 C 20.046875 -1.171875 19.226562 -0.769531 18.375 -0.46875 C 17.519531 -0.164062 16.648438 0.0390625 15.765625 0.15625 C 14.878906 0.28125 14.019531 0.34375 13.1875 0.34375 C 11.539062 0.34375 10.007812 0.0703125 8.59375 -0.46875 C 7.175781 -1.019531 5.941406 -1.828125 4.890625 -2.890625 C 3.847656 -3.960938 3.023438 -5.285156 2.421875 -6.859375 C 1.828125 -8.441406 1.53125 -10.273438 1.53125 -12.359375 C 1.53125 -13.972656 1.789062 -15.492188 2.3125 -16.921875 C 2.832031 -18.347656 3.582031 -19.585938 4.5625 -20.640625 C 5.539062 -21.691406 6.734375 -22.523438 8.140625 -23.140625 C 9.546875 -23.765625 11.132812 -24.078125 12.90625 -24.078125 C 14.40625 -24.078125 15.785156 -23.835938 17.046875 -23.359375 C 18.304688 -22.878906 19.390625 -22.179688 20.296875 -21.265625 C 21.210938 -20.347656 21.925781 -19.222656 22.4375 -17.890625 C 22.957031 -16.554688 23.21875 -15.035156 23.21875 -13.328125 C 23.21875 -12.460938 23.125 -11.878906 22.9375 -11.578125 C 22.75 -11.285156 22.394531 -11.140625 21.875 -11.140625 Z M 7.203125 -11.140625 "/></g></g><g style="fill:#54436b;fill-opacity:1;"><g transform="translate(158.546518, 86.616922)"><path style="stroke:none" d="M 17.28125 -19.078125 C 17.125 -18.835938 16.960938 -18.664062 16.796875 -18.5625 C 16.628906 -18.457031 16.410156 -18.40625 16.140625 -18.40625 C 15.867188 -18.40625 15.570312 -18.484375 15.25 -18.640625 C 14.9375 -18.796875 14.570312 -18.96875 14.15625 -19.15625 C 13.738281 -19.351562 13.265625 -19.523438 12.734375 -19.671875 C 12.203125 -19.828125 11.578125 -19.90625 10.859375 -19.90625 C 9.734375 -19.90625 8.847656 -19.664062 8.203125 -19.1875 C 7.566406 -18.71875 7.25 -18.097656 7.25 -17.328125 C 7.25 -16.816406 7.414062 -16.390625 7.75 -16.046875 C 8.082031 -15.703125 8.519531 -15.394531 9.0625 -15.125 C 9.613281 -14.863281 10.234375 -14.628906 10.921875 -14.421875 C 11.617188 -14.210938 12.320312 -13.984375 13.03125 -13.734375 C 13.75 -13.492188 14.453125 -13.210938 15.140625 -12.890625 C 15.835938 -12.578125 16.457031 -12.175781 17 -11.6875 C 17.550781 -11.207031 17.992188 -10.628906 18.328125 -9.953125 C 18.660156 -9.273438 18.828125 -8.460938 18.828125 -7.515625 C 18.828125 -6.367188 18.625 -5.3125 18.21875 -4.34375 C 17.8125 -3.382812 17.207031 -2.554688 16.40625 -1.859375 C 15.601562 -1.160156 14.613281 -0.613281 13.4375 -0.21875 C 12.257812 0.175781 10.898438 0.375 9.359375 0.375 C 8.535156 0.375 7.734375 0.300781 6.953125 0.15625 C 6.179688 0.0078125 5.4375 -0.191406 4.71875 -0.453125 C 4.007812 -0.722656 3.347656 -1.035156 2.734375 -1.390625 C 2.128906 -1.742188 1.59375 -2.128906 1.125 -2.546875 L 2.453125 -4.71875 C 2.617188 -4.976562 2.816406 -5.175781 3.046875 -5.3125 C 3.273438 -5.445312 3.566406 -5.515625 3.921875 -5.515625 C 4.273438 -5.515625 4.609375 -5.414062 4.921875 -5.21875 C 5.242188 -5.019531 5.613281 -4.804688 6.03125 -4.578125 C 6.445312 -4.347656 6.9375 -4.128906 7.5 -3.921875 C 8.0625 -3.722656 8.773438 -3.625 9.640625 -3.625 C 10.316406 -3.625 10.894531 -3.703125 11.375 -3.859375 C 11.863281 -4.023438 12.265625 -4.238281 12.578125 -4.5 C 12.890625 -4.757812 13.117188 -5.0625 13.265625 -5.40625 C 13.410156 -5.757812 13.484375 -6.117188 13.484375 -6.484375 C 13.484375 -7.046875 13.316406 -7.503906 12.984375 -7.859375 C 12.660156 -8.210938 12.222656 -8.519531 11.671875 -8.78125 C 11.128906 -9.039062 10.503906 -9.273438 9.796875 -9.484375 C 9.097656 -9.691406 8.382812 -9.914062 7.65625 -10.15625 C 6.925781 -10.40625 6.207031 -10.695312 5.5 -11.03125 C 4.800781 -11.363281 4.175781 -11.78125 3.625 -12.28125 C 3.082031 -12.789062 2.644531 -13.414062 2.3125 -14.15625 C 1.988281 -14.894531 1.828125 -15.789062 1.828125 -16.84375 C 1.828125 -17.8125 2.019531 -18.734375 2.40625 -19.609375 C 2.789062 -20.492188 3.351562 -21.257812 4.09375 -21.90625 C 4.84375 -22.5625 5.773438 -23.085938 6.890625 -23.484375 C 8.015625 -23.878906 9.304688 -24.078125 10.765625 -24.078125 C 12.398438 -24.078125 13.882812 -23.804688 15.21875 -23.265625 C 16.5625 -22.722656 17.679688 -22.015625 18.578125 -21.140625 Z M 17.28125 -19.078125 "/></g></g><g style="fill:#54436b;fill-opacity:1;"><g transform="translate(178.851731, 86.616922)"><path style="stroke:none" d="M 10.71875 0.375 C 8.65625 0.375 7.070312 -0.207031 5.96875 -1.375 C 4.863281 -2.539062 4.3125 -4.144531 4.3125 -6.1875 L 4.3125 -19.421875 L 1.890625 -19.421875 C 1.585938 -19.421875 1.328125 -19.519531 1.109375 -19.71875 C 0.890625 -19.925781 0.78125 -20.226562 0.78125 -20.625 L 0.78125 -22.890625 L 4.59375 -23.515625 L 5.796875 -29.984375 C 5.867188 -30.296875 6.015625 -30.535156 6.234375 -30.703125 C 6.453125 -30.867188 6.726562 -30.953125 7.0625 -30.953125 L 10.03125 -30.953125 L 10.03125 -23.5 L 16.359375 -23.5 L 16.359375 -19.421875 L 10.03125 -19.421875 L 10.03125 -6.578125 C 10.03125 -5.835938 10.207031 -5.257812 10.5625 -4.84375 C 10.925781 -4.4375 11.425781 -4.234375 12.0625 -4.234375 C 12.414062 -4.234375 12.710938 -4.273438 12.953125 -4.359375 C 13.191406 -4.441406 13.398438 -4.53125 13.578125 -4.625 C 13.753906 -4.71875 13.910156 -4.804688 14.046875 -4.890625 C 14.179688 -4.972656 14.320312 -5.015625 14.46875 -5.015625 C 14.632812 -5.015625 14.769531 -4.972656 14.875 -4.890625 C 14.988281 -4.804688 15.101562 -4.675781 15.21875 -4.5 L 16.9375 -1.734375 C 16.101562 -1.035156 15.144531 -0.507812 14.0625 -0.15625 C 12.988281 0.195312 11.875 0.375 10.71875 0.375 Z M 10.71875 0.375 "/></g></g><g style="fill:#54436b;fill-opacity:1;"><g transform="translate(196.038402, 86.616922)"><path style="stroke:none" d="M 2.640625 -16.328125 L 14.59375 -16.328125 L 14.59375 -11.578125 L 2.640625 -11.578125 Z M 2.640625 -16.328125 "/></g></g><g style="fill:#54436b;fill-opacity:1;"><g transform="translate(213.271272, 86.616922)"><path style="stroke:none" d="M 2.8125 0 L 2.8125 -23.703125 L 6.3125 -23.703125 C 7.050781 -23.703125 7.535156 -23.351562 7.765625 -22.65625 L 8.125 -20.90625 C 8.539062 -21.363281 8.976562 -21.785156 9.4375 -22.171875 C 9.894531 -22.554688 10.378906 -22.890625 10.890625 -23.171875 C 11.410156 -23.453125 11.960938 -23.671875 12.546875 -23.828125 C 13.140625 -23.992188 13.789062 -24.078125 14.5 -24.078125 C 16 -24.078125 17.226562 -23.671875 18.1875 -22.859375 C 19.15625 -22.046875 19.878906 -20.972656 20.359375 -19.640625 C 20.722656 -20.421875 21.179688 -21.09375 21.734375 -21.65625 C 22.285156 -22.21875 22.894531 -22.675781 23.5625 -23.03125 C 24.226562 -23.382812 24.929688 -23.644531 25.671875 -23.8125 C 26.421875 -23.988281 27.175781 -24.078125 27.9375 -24.078125 C 29.238281 -24.078125 30.394531 -23.875 31.40625 -23.46875 C 32.425781 -23.070312 33.28125 -22.488281 33.96875 -21.71875 C 34.664062 -20.945312 35.195312 -20.003906 35.5625 -18.890625 C 35.925781 -17.785156 36.109375 -16.515625 36.109375 -15.078125 L 36.109375 0 L 30.40625 0 L 30.40625 -15.078125 C 30.40625 -16.585938 30.070312 -17.722656 29.40625 -18.484375 C 28.75 -19.253906 27.78125 -19.640625 26.5 -19.640625 C 25.914062 -19.640625 25.375 -19.535156 24.875 -19.328125 C 24.375 -19.128906 23.929688 -18.84375 23.546875 -18.46875 C 23.171875 -18.09375 22.875 -17.617188 22.65625 -17.046875 C 22.445312 -16.472656 22.34375 -15.816406 22.34375 -15.078125 L 22.34375 0 L 16.609375 0 L 16.609375 -15.078125 C 16.609375 -16.671875 16.285156 -17.828125 15.640625 -18.546875 C 15.003906 -19.273438 14.070312 -19.640625 12.84375 -19.640625 C 12.007812 -19.640625 11.234375 -19.429688 10.515625 -19.015625 C 9.804688 -18.609375 9.144531 -18.050781 8.53125 -17.34375 L 8.53125 0 Z M 2.8125 0 "/></g></g><g style="fill:#54436b;fill-opacity:1;"><g transform="translate(251.964371, 86.616922)"><path style="stroke:none" d="M 15.34375 -10.125 C 13.695312 -10.039062 12.3125 -9.894531 11.1875 -9.6875 C 10.0625 -9.476562 9.160156 -9.210938 8.484375 -8.890625 C 7.804688 -8.566406 7.316406 -8.1875 7.015625 -7.75 C 6.722656 -7.320312 6.578125 -6.859375 6.578125 -6.359375 C 6.578125 -5.347656 6.875 -4.628906 7.46875 -4.203125 C 8.0625 -3.773438 8.835938 -3.5625 9.796875 -3.5625 C 10.960938 -3.5625 11.972656 -3.769531 12.828125 -4.1875 C 13.679688 -4.613281 14.519531 -5.257812 15.34375 -6.125 Z M 2.265625 -20.40625 C 4.992188 -22.894531 8.273438 -24.140625 12.109375 -24.140625 C 13.492188 -24.140625 14.734375 -23.910156 15.828125 -23.453125 C 16.921875 -23.003906 17.84375 -22.375 18.59375 -21.5625 C 19.351562 -20.757812 19.925781 -19.796875 20.3125 -18.671875 C 20.707031 -17.546875 20.90625 -16.3125 20.90625 -14.96875 L 20.90625 0 L 18.3125 0 C 17.78125 0 17.367188 -0.078125 17.078125 -0.234375 C 16.785156 -0.398438 16.550781 -0.726562 16.375 -1.21875 L 15.875 -2.9375 C 15.269531 -2.394531 14.679688 -1.921875 14.109375 -1.515625 C 13.546875 -1.109375 12.953125 -0.765625 12.328125 -0.484375 C 11.710938 -0.203125 11.054688 0.0078125 10.359375 0.15625 C 9.660156 0.300781 8.890625 0.375 8.046875 0.375 C 7.035156 0.375 6.109375 0.238281 5.265625 -0.03125 C 4.421875 -0.300781 3.691406 -0.707031 3.078125 -1.25 C 2.460938 -1.789062 1.984375 -2.457031 1.640625 -3.25 C 1.296875 -4.050781 1.125 -4.984375 1.125 -6.046875 C 1.125 -6.648438 1.222656 -7.25 1.421875 -7.84375 C 1.628906 -8.4375 1.957031 -9 2.40625 -9.53125 C 2.863281 -10.070312 3.453125 -10.582031 4.171875 -11.0625 C 4.898438 -11.539062 5.789062 -11.957031 6.84375 -12.3125 C 7.90625 -12.664062 9.132812 -12.953125 10.53125 -13.171875 C 11.9375 -13.398438 13.539062 -13.535156 15.34375 -13.578125 L 15.34375 -14.96875 C 15.34375 -16.550781 15.003906 -17.722656 14.328125 -18.484375 C 13.648438 -19.253906 12.671875 -19.640625 11.390625 -19.640625 C 10.460938 -19.640625 9.691406 -19.53125 9.078125 -19.3125 C 8.472656 -19.09375 7.941406 -18.847656 7.484375 -18.578125 C 7.023438 -18.316406 6.601562 -18.078125 6.21875 -17.859375 C 5.84375 -17.640625 5.425781 -17.53125 4.96875 -17.53125 C 4.5625 -17.53125 4.21875 -17.632812 3.9375 -17.84375 C 3.664062 -18.050781 3.445312 -18.296875 3.28125 -18.578125 Z M 2.265625 -20.40625 "/></g></g><g style="fill:#54436b;fill-opacity:1;"><g transform="translate(275.411226, 86.616922)"><path style="stroke:none" d="M 8.203125 -19.59375 C 8.941406 -21.007812 9.816406 -22.117188 10.828125 -22.921875 C 11.847656 -23.734375 13.050781 -24.140625 14.4375 -24.140625 C 15.53125 -24.140625 16.410156 -23.898438 17.078125 -23.421875 L 16.703125 -19.15625 C 16.628906 -18.875 16.515625 -18.675781 16.359375 -18.5625 C 16.210938 -18.445312 16.019531 -18.390625 15.78125 -18.390625 C 15.550781 -18.390625 15.207031 -18.425781 14.75 -18.5 C 14.289062 -18.582031 13.847656 -18.625 13.421875 -18.625 C 12.785156 -18.625 12.222656 -18.53125 11.734375 -18.34375 C 11.242188 -18.15625 10.800781 -17.890625 10.40625 -17.546875 C 10.007812 -17.203125 9.660156 -16.78125 9.359375 -16.28125 C 9.066406 -15.789062 8.789062 -15.226562 8.53125 -14.59375 L 8.53125 0 L 2.8125 0 L 2.8125 -23.703125 L 6.171875 -23.703125 C 6.753906 -23.703125 7.160156 -23.597656 7.390625 -23.390625 C 7.617188 -23.179688 7.773438 -22.804688 7.859375 -22.265625 Z M 8.203125 -19.59375 "/></g></g><g style="fill:#54436b;fill-opacity:1;"><g transform="translate(292.644097, 86.616922)"><path style="stroke:none" d="M 10.71875 0.375 C 8.65625 0.375 7.070312 -0.207031 5.96875 -1.375 C 4.863281 -2.539062 4.3125 -4.144531 4.3125 -6.1875 L 4.3125 -19.421875 L 1.890625 -19.421875 C 1.585938 -19.421875 1.328125 -19.519531 1.109375 -19.71875 C 0.890625 -19.925781 0.78125 -20.226562 0.78125 -20.625 L 0.78125 -22.890625 L 4.59375 -23.515625 L 5.796875 -29.984375 C 5.867188 -30.296875 6.015625 -30.535156 6.234375 -30.703125 C 6.453125 -30.867188 6.726562 -30.953125 7.0625 -30.953125 L 10.03125 -30.953125 L 10.03125 -23.5 L 16.359375 -23.5 L 16.359375 -19.421875 L 10.03125 -19.421875 L 10.03125 -6.578125 C 10.03125 -5.835938 10.207031 -5.257812 10.5625 -4.84375 C 10.925781 -4.4375 11.425781 -4.234375 12.0625 -4.234375 C 12.414062 -4.234375 12.710938 -4.273438 12.953125 -4.359375 C 13.191406 -4.441406 13.398438 -4.53125 13.578125 -4.625 C 13.753906 -4.71875 13.910156 -4.804688 14.046875 -4.890625 C 14.179688 -4.972656 14.320312 -5.015625 14.46875 -5.015625 C 14.632812 -5.015625 14.769531 -4.972656 14.875 -4.890625 C 14.988281 -4.804688 15.101562 -4.675781 15.21875 -4.5 L 16.9375 -1.734375 C 16.101562 -1.035156 15.144531 -0.507812 14.0625 -0.15625 C 12.988281 0.195312 11.875 0.375 10.71875 0.375 Z M 10.71875 0.375 "/></g></g><g clip-rule="nonzero" clip-path="url(#5918c15a1b)"><path style=" stroke:none;fill-rule:nonzero;fill:#aa2c86;fill-opacity:1;" d="M 35.472656 89.421875 C 35.46875 89.421875 35.46875 89.421875 35.472656 89.421875 C 33.25 89.421875 31.15625 89.296875 29.242188 89.054688 L 29.242188 112.609375 L 78.652344 112.609375 L 78.652344 77.730469 C 72.722656 81.339844 64.882812 84.464844 56.328125 86.617188 C 49.023438 88.449219 41.8125 89.421875 35.472656 89.421875 Z M 35.472656 89.421875 "/></g><g clip-rule="nonzero" clip-path="url(#2edc836fb6)"><path style=" stroke:none;fill-rule:nonzero;fill:#79c8a3;fill-opacity:1;" d="M 82.226562 64.621094 C 82.105469 64.140625 81.890625 63.691406 81.597656 63.269531 C 81.335938 64.898438 80.183594 66.636719 78.316406 68.378906 L 76.808594 51.351562 L 66.15625 51.351562 C 66.230469 51.691406 66.300781 52.019531 66.363281 52.335938 C 67.691406 52.953125 68.589844 54.296875 68.589844 55.835938 C 68.589844 57.964844 66.859375 59.695312 64.730469 59.695312 C 62.605469 59.695312 60.875 57.960938 60.875 55.835938 C 60.875 54.78125 61.308594 53.789062 62.039062 53.074219 C 61.921875 52.5 61.792969 51.925781 61.652344 51.351562 L 46.5 51.351562 C 46.359375 51.925781 46.234375 52.5 46.113281 53.074219 C 46.84375 53.789062 47.28125 54.777344 47.28125 55.835938 C 47.28125 57.960938 45.546875 59.691406 43.421875 59.691406 C 41.292969 59.691406 39.5625 57.960938 39.5625 55.835938 C 39.5625 54.296875 40.460938 52.953125 41.789062 52.335938 C 41.851562 52.015625 41.921875 51.6875 41.996094 51.351562 L 30.753906 51.351562 L 29.21875 80.746094 C 26.632812 80.074219 24.730469 79.03125 23.75 77.644531 C 23.660156 78.210938 23.679688 78.765625 23.8125 79.296875 C 25.25 85.023438 39.492188 86.378906 55.625 82.324219 C 71.753906 78.273438 83.664062 70.347656 82.226562 64.621094 Z M 82.226562 64.621094 "/></g><g clip-rule="nonzero" clip-path="url(#231bffa57f)"><path style=" stroke:none;fill-rule:nonzero;fill:#6d6e71;fill-opacity:1;" d="M 64.984375 53.582031 C 64.085938 48.613281 61.210938 36.992188 54.082031 36.992188 C 46.945312 36.992188 44.074219 48.613281 43.175781 53.582031 C 42.039062 53.707031 41.15625 54.667969 41.15625 55.835938 C 41.15625 57.089844 42.171875 58.105469 43.421875 58.105469 C 44.675781 58.105469 45.691406 57.089844 45.691406 55.835938 C 45.691406 54.917969 45.144531 54.128906 44.359375 53.769531 C 45.234375 49.058594 47.914062 38.183594 54.082031 38.183594 C 60.242188 38.183594 62.925781 49.058594 63.796875 53.773438 C 63.015625 54.128906 62.464844 54.917969 62.464844 55.835938 C 62.464844 57.089844 63.484375 58.105469 64.734375 58.105469 C 65.988281 58.105469 67.003906 57.089844 67.003906 55.835938 C 67.003906 54.667969 66.121094 53.707031 64.984375 53.582031 Z M 64.984375 53.582031 "/></g><g clip-rule="nonzero" clip-path="url(#6daf1beb6a)"><path style=" stroke:none;fill-rule:evenodd;fill:#79c8a3;fill-opacity:1;" d="M 337.613281 74.15625 C 326.652344 74.105469 320.769531 79.222656 320.265625 89.816406 C 320.257812 89.949219 320.0625 89.957031 320.042969 89.828125 C 319.554688 86.363281 319.648438 83.210938 320.527344 80.46875 C 323.429688 71.417969 334.488281 70.230469 342.335938 73.09375 C 342.726562 73.238281 342.804688 73.742188 342.480469 74.003906 C 336.359375 78.898438 337.191406 92.257812 322.292969 86.464844 C 324.621094 79.234375 329.390625 74.753906 337.613281 74.15625 "/></g><g style="fill:#f68712;fill-opacity:1;"><g transform="translate(187.705923, 108.226854)"><path style="stroke:none" d="M 5.21875 -9.3125 C 6.582031 -9.3125 7.707031 -8.851562 8.59375 -7.9375 C 9.457031 -7.050781 9.890625 -5.9375 9.890625 -4.59375 C 9.890625 -3.257812 9.457031 -2.148438 8.59375 -1.265625 C 7.707031 -0.347656 6.582031 0.109375 5.21875 0.109375 C 3.84375 0.109375 2.710938 -0.347656 1.828125 -1.265625 C 0.972656 -2.148438 0.546875 -3.257812 0.546875 -4.59375 C 0.546875 -5.9375 0.972656 -7.050781 1.828125 -7.9375 C 2.710938 -8.851562 3.84375 -9.3125 5.21875 -9.3125 Z M 5.21875 -0.90625 C 6.3125 -0.90625 7.195312 -1.257812 7.875 -1.96875 C 8.519531 -2.65625 8.84375 -3.535156 8.84375 -4.609375 C 8.84375 -5.671875 8.519531 -6.546875 7.875 -7.234375 C 7.195312 -7.941406 6.3125 -8.296875 5.21875 -8.296875 C 4.125 -8.296875 3.238281 -7.941406 2.5625 -7.234375 C 1.90625 -6.546875 1.578125 -5.671875 1.578125 -4.609375 C 1.578125 -3.535156 1.90625 -2.65625 2.5625 -1.96875 C 3.238281 -1.257812 4.125 -0.90625 5.21875 -0.90625 Z M 5.21875 -0.90625 "/></g></g><g style="fill:#f68712;fill-opacity:1;"><g transform="translate(200.868251, 108.226854)"><path style="stroke:none" d="M 9.0625 -9.203125 L 9.0625 0 L 7.859375 0 L 2.171875 -7.78125 L 2.171875 0 L 1.125 0 L 1.125 -9.203125 L 2.34375 -9.203125 L 8.03125 -1.453125 L 8.03125 -9.203125 Z M 9.0625 -9.203125 "/></g></g><g style="fill:#f68712;fill-opacity:1;"><g transform="translate(213.794354, 108.226854)"><path style="stroke:none" d="M 2.171875 -9.203125 L 2.171875 -1 L 7.1875 -1 L 7.1875 0 L 1.125 0 L 1.125 -9.203125 Z M 2.171875 -9.203125 "/></g></g><g style="fill:#f68712;fill-opacity:1;"><g transform="translate(223.941229, 108.226854)"><path style="stroke:none" d="M 2.171875 0 L 1.125 0 L 1.125 -9.203125 L 2.171875 -9.203125 Z M 2.171875 0 "/></g></g><g style="fill:#f68712;fill-opacity:1;"><g transform="translate(229.974851, 108.226854)"><path style="stroke:none" d="M 9.0625 -9.203125 L 9.0625 0 L 7.859375 0 L 2.171875 -7.78125 L 2.171875 0 L 1.125 0 L 1.125 -9.203125 L 2.34375 -9.203125 L 8.03125 -1.453125 L 8.03125 -9.203125 Z M 9.0625 -9.203125 "/></g></g><g style="fill:#f68712;fill-opacity:1;"><g transform="translate(242.900953, 108.226854)"><path style="stroke:none" d="M 2.171875 -8.203125 L 2.171875 -5.125 L 7.28125 -5.125 L 7.28125 -4.109375 L 2.171875 -4.109375 L 2.171875 -1 L 7.90625 -1 L 7.90625 0 L 1.125 0 L 1.125 -9.203125 L 7.90625 -9.203125 L 7.90625 -8.203125 Z M 2.171875 -8.203125 "/></g></g><g style="fill:#f68712;fill-opacity:1;"><g transform="translate(254.090037, 108.226854)"><path style="stroke:none" d=""/></g></g><g style="fill:#f68712;fill-opacity:1;"><g transform="translate(259.790156, 108.226854)"><path style="stroke:none" d="M 2.1875 -7.796875 C 2.007812 -7.640625 1.890625 -7.46875 1.828125 -7.28125 C 1.765625 -7.101562 1.734375 -6.910156 1.734375 -6.703125 C 1.734375 -6.492188 1.820312 -6.300781 2 -6.125 C 2.1875 -5.945312 2.425781 -5.796875 2.71875 -5.671875 C 3.019531 -5.554688 3.359375 -5.453125 3.734375 -5.359375 C 4.117188 -5.265625 4.507812 -5.164062 4.90625 -5.0625 C 5.300781 -4.96875 5.6875 -4.859375 6.0625 -4.734375 C 6.445312 -4.609375 6.785156 -4.445312 7.078125 -4.25 C 7.734375 -3.832031 8.0625 -3.265625 8.0625 -2.546875 C 8.0625 -1.679688 7.738281 -1.019531 7.09375 -0.5625 C 6.445312 -0.113281 5.554688 0.109375 4.421875 0.109375 C 3.128906 0.109375 2.144531 -0.15625 1.46875 -0.6875 C 0.863281 -1.175781 0.519531 -1.863281 0.4375 -2.75 L 1.53125 -2.75 C 1.5625 -2.125 1.867188 -1.644531 2.453125 -1.3125 C 2.953125 -1.019531 3.613281 -0.875 4.4375 -0.875 C 6.15625 -0.875 7.015625 -1.414062 7.015625 -2.5 C 7.015625 -2.875 6.859375 -3.164062 6.546875 -3.375 C 6.242188 -3.59375 5.859375 -3.769531 5.390625 -3.90625 C 4.921875 -4.039062 4.414062 -4.171875 3.875 -4.296875 C 3.332031 -4.421875 2.828125 -4.578125 2.359375 -4.765625 C 1.890625 -4.953125 1.5 -5.203125 1.1875 -5.515625 C 0.875 -5.828125 0.71875 -6.242188 0.71875 -6.765625 C 0.71875 -7.523438 1.003906 -8.140625 1.578125 -8.609375 C 2.160156 -9.078125 3.03125 -9.3125 4.1875 -9.3125 C 5.351562 -9.3125 6.253906 -9.046875 6.890625 -8.515625 C 7.484375 -8.035156 7.796875 -7.425781 7.828125 -6.6875 L 6.765625 -6.6875 C 6.671875 -7.445312 6.175781 -7.953125 5.28125 -8.203125 C 4.96875 -8.296875 4.578125 -8.34375 4.109375 -8.34375 C 3.640625 -8.34375 3.242188 -8.289062 2.921875 -8.1875 C 2.609375 -8.082031 2.363281 -7.953125 2.1875 -7.796875 Z M 2.1875 -7.796875 "/></g></g><g style="fill:#f68712;fill-opacity:1;"><g transform="translate(271.076517, 108.226854)"><path style="stroke:none" d="M 7.65625 -8.203125 L 4.453125 -8.203125 L 4.453125 0 L 3.40625 0 L 3.40625 -8.203125 L 0.1875 -8.203125 L 0.1875 -9.203125 L 7.65625 -9.203125 Z M 7.65625 -8.203125 "/></g></g><g style="fill:#f68712;fill-opacity:1;"><g transform="translate(281.668069, 108.226854)"><path style="stroke:none" d="M 5.21875 -9.3125 C 6.582031 -9.3125 7.707031 -8.851562 8.59375 -7.9375 C 9.457031 -7.050781 9.890625 -5.9375 9.890625 -4.59375 C 9.890625 -3.257812 9.457031 -2.148438 8.59375 -1.265625 C 7.707031 -0.347656 6.582031 0.109375 5.21875 0.109375 C 3.84375 0.109375 2.710938 -0.347656 1.828125 -1.265625 C 0.972656 -2.148438 0.546875 -3.257812 0.546875 -4.59375 C 0.546875 -5.9375 0.972656 -7.050781 1.828125 -7.9375 C 2.710938 -8.851562 3.84375 -9.3125 5.21875 -9.3125 Z M 5.21875 -0.90625 C 6.3125 -0.90625 7.195312 -1.257812 7.875 -1.96875 C 8.519531 -2.65625 8.84375 -3.535156 8.84375 -4.609375 C 8.84375 -5.671875 8.519531 -6.546875 7.875 -7.234375 C 7.195312 -7.941406 6.3125 -8.296875 5.21875 -8.296875 C 4.125 -8.296875 3.238281 -7.941406 2.5625 -7.234375 C 1.90625 -6.546875 1.578125 -5.671875 1.578125 -4.609375 C 1.578125 -3.535156 1.90625 -2.65625 2.5625 -1.96875 C 3.238281 -1.257812 4.125 -0.90625 5.21875 -0.90625 Z M 5.21875 -0.90625 "/></g></g><g style="fill:#f68712;fill-opacity:1;"><g transform="translate(294.830397, 108.226854)"><path style="stroke:none" d="M 2.171875 0 L 1.125 0 L 1.125 -9.203125 L 5.53125 -9.203125 C 6.46875 -9.203125 7.21875 -8.941406 7.78125 -8.421875 C 8.351562 -7.910156 8.640625 -7.210938 8.640625 -6.328125 C 8.640625 -5.179688 8.160156 -4.398438 7.203125 -3.984375 C 6.929688 -3.859375 6.664062 -3.769531 6.40625 -3.71875 L 8.828125 0 L 7.59375 0 L 5.375 -3.53125 L 2.171875 -3.53125 Z M 2.171875 -4.515625 L 5.359375 -4.515625 C 6.335938 -4.515625 7.015625 -4.820312 7.390625 -5.4375 C 7.523438 -5.664062 7.59375 -5.960938 7.59375 -6.328125 C 7.59375 -6.910156 7.390625 -7.367188 6.984375 -7.703125 C 6.585938 -8.046875 6.0625 -8.21875 5.40625 -8.21875 L 2.171875 -8.21875 Z M 2.171875 -4.515625 "/></g></g><g style="fill:#f68712;fill-opacity:1;"><g transform="translate(306.867148, 108.226854)"><path style="stroke:none" d="M 2.171875 -8.203125 L 2.171875 -5.125 L 7.28125 -5.125 L 7.28125 -4.109375 L 2.171875 -4.109375 L 2.171875 -1 L 7.90625 -1 L 7.90625 0 L 1.125 0 L 1.125 -9.203125 L 7.90625 -9.203125 L 7.90625 -8.203125 Z M 2.171875 -8.203125 "/></g></g></g></svg>