<svg xmlns="http://www.w3.org/2000/svg" xmlns:xlink="http://www.w3.org/1999/xlink" width="200" zoomAndPan="magnify" viewBox="0 0 150 149.999998" height="200" preserveAspectRatio="xMidYMid meet" version="1.2"><defs><clipPath id="836e11504d"><path d="M 34 79 L 117 79 L 117 138.421875 L 34 138.421875 Z M 34 79 "/></clipPath><clipPath id="72834e2449"><path d="M 24.796875 35 L 123 35 L 123 92 L 24.796875 92 Z M 24.796875 35 "/></clipPath><clipPath id="b1d74ab296"><path d="M 54 11.671875 L 98 11.671875 L 98 48 L 54 48 Z M 54 11.671875 "/></clipPath></defs><g id="79a3b020ad"><g clip-rule="nonzero" clip-path="url(#836e11504d)"><path style=" stroke:none;fill-rule:nonzero;fill:#aa2c86;fill-opacity:1;" d="M 44.570312 99.453125 C 44.566406 99.453125 44.566406 99.453125 44.570312 99.453125 C 40.847656 99.453125 37.351562 99.25 34.144531 98.847656 L 34.144531 138.253906 L 116.820312 138.253906 L 116.820312 79.898438 C 106.894531 85.933594 93.78125 91.164062 79.464844 94.761719 C 67.246094 97.832031 55.175781 99.453125 44.570312 99.453125 Z M 44.570312 99.453125 "/></g><g clip-rule="nonzero" clip-path="url(#72834e2449)"><path style=" stroke:none;fill-rule:nonzero;fill:#79c8a3;fill-opacity:1;" d="M 122.796875 57.960938 C 122.59375 57.15625 122.238281 56.402344 121.746094 55.703125 C 121.3125 58.421875 119.382812 61.332031 116.257812 64.246094 L 113.730469 35.757812 L 95.914062 35.757812 C 96.039062 36.324219 96.152344 36.875 96.257812 37.40625 C 98.480469 38.4375 99.984375 40.683594 99.984375 43.261719 C 99.984375 46.824219 97.089844 49.71875 93.527344 49.71875 C 89.964844 49.71875 87.070312 46.820312 87.070312 43.261719 C 87.070312 41.496094 87.796875 39.835938 89.023438 38.640625 C 88.824219 37.679688 88.609375 36.714844 88.375 35.757812 L 63.019531 35.757812 C 62.785156 36.714844 62.574219 37.675781 62.375 38.636719 C 63.597656 39.832031 64.324219 41.492188 64.324219 43.257812 C 64.324219 46.820312 61.425781 49.714844 57.867188 49.714844 C 54.308594 49.714844 51.410156 46.816406 51.410156 43.257812 C 51.410156 40.683594 52.917969 38.433594 55.140625 37.402344 C 55.242188 36.871094 55.363281 36.320312 55.484375 35.753906 L 36.671875 35.753906 L 34.105469 84.945312 C 29.777344 83.816406 26.59375 82.070312 24.957031 79.75 C 24.804688 80.703125 24.835938 81.625 25.058594 82.519531 C 27.464844 92.097656 51.296875 94.363281 78.285156 87.582031 C 105.277344 80.804688 125.207031 67.539062 122.796875 57.960938 Z M 122.796875 57.960938 "/></g><g clip-rule="nonzero" clip-path="url(#b1d74ab296)"><path style=" stroke:none;fill-rule:nonzero;fill:#6d6e71;fill-opacity:1;" d="M 93.949219 39.488281 C 92.445312 31.179688 87.636719 11.726562 75.703125 11.726562 C 63.769531 11.726562 58.964844 31.179688 57.457031 39.488281 C 55.554688 39.699219 54.078125 41.304688 54.078125 43.261719 C 54.078125 45.359375 55.777344 47.058594 57.871094 47.058594 C 59.96875 47.058594 61.671875 45.359375 61.671875 43.261719 C 61.671875 41.722656 60.753906 40.402344 59.441406 39.804688 C 60.902344 31.917969 65.386719 13.722656 75.703125 13.722656 C 86.015625 13.722656 90.503906 31.917969 91.964844 39.808594 C 90.652344 40.40625 89.734375 41.726562 89.734375 43.261719 C 89.734375 45.359375 91.4375 47.058594 93.53125 47.058594 C 95.628906 47.058594 97.328125 45.359375 97.328125 43.261719 C 97.328125 41.304688 95.851562 39.699219 93.949219 39.488281 Z M 93.949219 39.488281 "/></g></g></svg>